<?xml version="1.0" encoding="utf-8"?>
<!-- Generator: Adobe Illustrator 17.0.0, SVG Export Plug-In . SVG Version: 6.00 Build 0)  -->
<!DOCTYPE svg PUBLIC "-//W3C//DTD SVG 1.1//EN" "http://www.w3.org/Graphics/SVG/1.1/DTD/svg11.dtd">
<svg version="1.1" id="Layer_1" xmlns="http://www.w3.org/2000/svg" xmlns:xlink="http://www.w3.org/1999/xlink" x="0px" y="0px"
	 width="16.005px" height="16.005px" viewBox="0 0 16.005 16.005" enable-background="new 0 0 16.005 16.005" xml:space="preserve">
<g>
	<path fill="#BBBBBB" d="M16.005,6.002c0,3.316-2.686,6.001-6.002,6.001c-1.186,0-2.278-0.333-3.205-0.926l-4.52,4.538
		c-0.259,0.259-0.611,0.389-0.945,0.389c-0.352,0-0.685-0.13-0.944-0.389c-0.519-0.519-0.519-1.371,0-1.889l4.538-4.52
		C4.335,8.28,4.002,7.188,4.002,6.002C4.002,2.686,6.687,0,10.003,0S16.005,2.686,16.005,6.002z M14.005,6.002
		C14.005,3.797,12.208,2,10.003,2C7.799,2,6.002,3.797,6.002,6.002c0,2.204,1.797,4.001,4.001,4.001
		C12.208,10.003,14.005,8.206,14.005,6.002z"/>
</g>
</svg>
